<?xml version="1.0" standalone="no"?>
<!DOCTYPE svg PUBLIC "-//W3C//DTD SVG 20010904//EN"
 "http://www.w3.org/TR/2001/REC-SVG-20010904/DTD/svg10.dtd">
<svg version="1.0" xmlns="http://www.w3.org/2000/svg"
 width="2400.000000pt" height="2400.000000pt" viewBox="0 0 2400.000000 2400.000000"
 preserveAspectRatio="xMidYMid meet">
<metadata>
Created by potrace 1.11, written by Peter Selinger 2001-2013
</metadata>
<g transform="translate(0.000000,2400.000000) scale(0.100000,-0.100000)"
fill="#000000" stroke="none">
<path d="M11925 21959 c-38 -23 -88 -51 -110 -64 -22 -12 -128 -73 -235 -135
-107 -62 -220 -126 -250 -143 -30 -16 -62 -35 -70 -41 -8 -6 -24 -16 -35 -22
-11 -6 -144 -82 -295 -169 -151 -87 -291 -167 -310 -178 -100 -56 -492 -283
-540 -312 -30 -18 -73 -42 -95 -54 -22 -12 -47 -26 -55 -31 -14 -9 -73 -43
-155 -90 -48 -27 -351 -202 -455 -262 -52 -30 -115 -66 -140 -80 -25 -14 -157
-90 -295 -170 -457 -264 -979 -565 -1020 -588 -76 -42 -580 -333 -630 -363
-27 -16 -70 -41 -95 -55 -42 -23 -185 -105 -222 -127 -23 -14 -114 -66 -173
-100 -27 -15 -66 -38 -86 -49 -124 -72 -266 -154 -297 -172 -42 -23 -527 -303
-832 -479 -113 -65 -225 -130 -250 -144 -93 -53 -342 -197 -369 -212 -59 -35
-568 -328 -606 -349 -22 -12 -44 -26 -50 -30 -5 -4 -30 -19 -55 -32 -25 -14
-106 -60 -180 -103 -74 -43 -155 -89 -180 -103 -25 -14 -85 -48 -135 -77 -49
-29 -155 -91 -235 -137 l-145 -84 -3 -5002 -2 -5002 37 -23 c21 -13 147 -86
281 -163 133 -76 264 -152 290 -167 26 -15 56 -32 67 -37 11 -6 29 -16 40 -22
58 -37 126 -78 129 -78 2 0 70 -38 151 -85 80 -47 165 -96 188 -109 23 -13
114 -65 202 -116 88 -51 178 -103 200 -116 22 -12 96 -55 165 -94 69 -40 145
-84 170 -98 67 -38 90 -51 265 -153 88 -51 177 -102 197 -113 20 -12 146 -84
279 -161 134 -77 263 -152 289 -166 25 -14 104 -60 175 -101 224 -129 536
-309 571 -329 42 -24 67 -38 224 -129 69 -40 145 -84 170 -98 25 -13 50 -28
55 -32 6 -4 30 -19 55 -32 25 -14 131 -75 235 -135 105 -60 314 -181 465 -268
407 -234 592 -340 720 -415 63 -37 124 -72 135 -78 49 -27 269 -154 360 -208
55 -32 102 -59 105 -59 3 0 16 -8 30 -17 20 -12 482 -279 660 -381 36 -20 91
-52 721 -415 202 -116 383 -220 403 -231 53 -31 91 -53 191 -111 50 -29 110
-64 135 -78 25 -13 81 -46 125 -72 44 -26 106 -62 138 -80 l58 -32 72 42 c40
23 92 54 117 67 25 14 72 41 105 61 71 41 114 66 174 100 25 14 68 38 95 55
28 16 76 43 106 60 30 16 62 36 71 43 8 8 18 14 21 14 3 0 99 54 213 120 114
66 210 120 212 120 3 0 17 8 31 19 15 10 47 29 72 43 75 42 571 327 630 363
30 18 73 42 95 54 22 12 55 31 74 42 75 45 298 173 326 187 17 9 33 20 36 25
3 5 8 7 10 6 2 -2 15 4 29 13 14 9 117 69 230 134 113 64 248 142 300 172 52
30 111 63 130 74 76 44 585 337 760 439 102 58 203 117 225 129 22 12 128 73
235 135 263 152 788 454 825 475 17 10 75 43 130 75 214 124 422 243 455 262
19 11 80 46 135 78 55 32 173 100 263 152 89 51 237 136 330 189 92 54 181
105 197 114 17 9 75 43 130 75 55 32 219 126 365 210 146 84 332 192 414 239
82 47 150 86 152 86 3 0 23 11 45 25 22 15 131 78 242 142 111 64 288 166 392
226 105 60 200 115 212 121 l23 11 0 5002 0 5003 -37 23 c-21 13 -147 86 -281
163 -133 76 -264 152 -290 167 -26 15 -56 32 -67 37 -11 6 -27 14 -35 20 -34
23 -171 100 -177 100 -4 0 -14 6 -22 14 -9 8 -43 29 -76 47 -88 47 -93 50
-170 96 -38 23 -245 142 -460 266 -214 123 -451 259 -525 302 -535 309 -651
375 -660 375 -6 0 -10 3 -10 8 0 4 -10 12 -23 18 -12 6 -98 55 -192 108 -93
54 -183 106 -200 116 -16 9 -122 70 -234 135 -112 64 -218 125 -235 135 -17
10 -103 59 -191 110 -88 51 -171 99 -185 107 -84 47 -125 71 -350 200 -91 52
-185 108 -210 123 -25 15 -67 40 -95 55 -27 14 -57 30 -65 35 -48 29 -153 91
-200 117 -67 37 -459 263 -625 360 -66 38 -129 75 -140 81 -11 6 -74 42 -140
80 -168 97 -430 248 -625 360 -91 52 -178 102 -195 112 -16 9 -102 59 -190
110 -88 50 -185 106 -215 123 -30 16 -86 49 -125 72 -55 33 -616 356 -792 457
-53 29 -93 52 -188 108 -49 29 -110 64 -135 78 -25 13 -72 40 -105 60 -126 73
-213 122 -217 122 -2 0 -34 -19 -73 -41z m-4119 -2544 c71 -41 136 -79 144
-84 12 -8 254 -147 325 -187 11 -6 106 -61 210 -121 105 -60 296 -171 425
-245 129 -74 280 -161 335 -193 55 -32 116 -67 135 -78 19 -10 72 -41 118 -68
45 -27 85 -49 87 -49 2 0 49 -27 103 -60 55 -33 105 -60 111 -60 6 0 11 -4 11
-10 0 -5 5 -10 10 -10 6 0 27 -11 48 -23 20 -13 60 -36 87 -51 52 -29 595
-342 635 -366 8 -5 42 -24 75 -43 78 -44 83 -47 394 -227 146 -84 282 -163
303 -176 21 -13 40 -24 42 -24 3 0 69 -38 148 -84 79 -46 177 -102 218 -126
104 -59 111 -63 330 -190 107 -62 213 -123 235 -136 70 -39 409 -233 425 -244
8 -5 44 -26 80 -46 63 -36 153 -88 565 -326 110 -64 220 -127 245 -141 25 -14
112 -64 194 -111 82 -47 151 -86 154 -86 3 0 13 -6 21 -14 9 -7 47 -30 85 -50
37 -21 97 -55 132 -77 36 -21 66 -39 69 -39 3 0 34 -18 70 -40 36 -22 68 -40
71 -40 3 0 18 -8 32 -19 15 -10 50 -31 77 -46 28 -15 139 -79 248 -142 110
-63 214 -123 232 -133 18 -10 43 -24 56 -32 13 -7 26 -15 29 -18 3 -3 19 -12
35 -21 17 -8 136 -76 265 -151 129 -75 254 -146 277 -159 361 -207 633 -365
633 -369 0 -3 -82 -52 -183 -109 -100 -58 -352 -203 -560 -323 -208 -120 -380
-218 -381 -218 -2 0 -52 -29 -111 -65 -59 -36 -109 -65 -112 -65 -2 0 -43 -23
-91 -51 -48 -29 -103 -61 -122 -72 -19 -11 -125 -71 -235 -135 -110 -63 -290
-167 -400 -230 -110 -63 -213 -123 -230 -134 -16 -10 -37 -21 -45 -25 -8 -4
-43 -24 -77 -44 -34 -21 -83 -50 -110 -64 -26 -14 -64 -35 -83 -46 -49 -30
-477 -276 -645 -372 -77 -44 -173 -99 -212 -123 -40 -24 -75 -44 -78 -44 -2 0
-26 -13 -53 -30 -26 -16 -169 -99 -317 -184 -148 -85 -271 -159 -273 -164 -2
-8 329 -204 697 -413 25 -14 136 -78 246 -141 110 -64 216 -125 235 -135 19
-11 91 -53 160 -93 69 -40 152 -88 185 -107 33 -18 67 -38 75 -43 17 -10 375
-216 433 -249 20 -11 54 -30 75 -42 20 -12 105 -61 187 -109 83 -48 170 -98
195 -112 25 -14 86 -49 135 -78 50 -29 106 -61 125 -72 74 -42 637 -367 670
-387 19 -11 42 -24 50 -28 12 -6 199 -113 250 -143 8 -5 95 -55 193 -112 98
-57 186 -107 195 -113 10 -5 64 -36 120 -68 l102 -58 0 -2500 0 -2501 -32 20
c-18 11 -80 48 -138 81 -58 34 -112 65 -120 70 -19 12 -294 169 -335 192 -16
9 -88 51 -159 93 -70 42 -132 76 -136 76 -4 0 -13 7 -20 15 -6 8 -15 14 -18
12 -6 -1 -177 95 -272 153 -8 5 -37 22 -65 38 -27 16 -66 38 -85 49 -19 11
-96 55 -170 98 -74 43 -171 99 -215 124 -44 26 -87 50 -95 54 -8 4 -36 20 -61
35 -25 15 -143 83 -263 152 -119 69 -231 133 -249 144 -17 10 -53 30 -78 45
-55 31 -245 140 -274 158 -11 7 -29 17 -40 22 -11 6 -42 24 -70 40 -27 16 -77
45 -110 64 -121 69 -508 292 -775 447 -107 62 -224 130 -260 150 -36 20 -155
88 -265 152 -110 63 -308 177 -440 253 -132 76 -244 141 -250 145 -5 4 -30 18
-55 32 -25 14 -135 77 -245 140 -110 64 -216 125 -235 136 -129 73 -650 373
-718 413 -45 27 -87 49 -92 49 -6 0 -10 4 -10 9 0 5 -8 11 -17 14 -10 3 -40
19 -68 35 -27 16 -108 63 -180 104 -71 42 -146 85 -165 96 -80 45 -567 326
-595 343 -16 11 -37 22 -45 26 -8 4 -86 49 -174 100 -87 51 -160 93 -162 93
-2 0 -27 14 -56 31 -90 54 -781 451 -820 473 -21 11 -38 22 -38 25 0 3 98 62
218 130 216 125 564 324 592 342 19 11 141 81 223 127 78 45 222 129 255 150
20 12 46 26 57 31 11 5 56 30 100 56 44 26 96 57 115 68 19 11 125 71 235 135
110 63 214 123 230 132 17 10 59 34 95 55 36 21 85 49 110 63 25 14 77 44 115
67 39 22 77 44 85 48 8 4 31 17 50 28 33 20 798 461 865 499 54 30 368 212
440 254 39 23 177 102 307 176 131 74 238 138 238 141 0 3 -14 12 -30 20 -17
8 -160 89 -318 180 -158 92 -309 179 -337 194 -27 15 -57 34 -66 41 -8 8 -18
14 -21 14 -3 0 -88 48 -189 106 -101 58 -201 116 -224 129 -22 12 -67 38 -100
57 -33 19 -199 115 -370 213 -170 98 -314 181 -320 185 -5 4 -30 19 -55 32
-86 48 -126 71 -275 158 -82 48 -170 98 -195 112 -25 14 -133 76 -240 138
-107 62 -209 121 -227 131 -17 10 -50 29 -72 43 -22 15 -43 26 -46 26 -2 0
-37 19 -77 43 -40 24 -80 46 -88 50 -8 4 -24 13 -35 20 -54 33 -142 84 -155
90 -8 4 -29 16 -47 26 -32 20 -737 426 -808 467 l-40 22 -3 2496 c-1 1476 2
2496 7 2496 5 0 67 -34 137 -75z"/>
</g>
</svg>
